<svg xmlns="http://www.w3.org/2000/svg" height="24px" viewBox="0 -960 960 960" width="24px" fill="#34c6f4"><path d="M480-34q-92.64 0-174.47-34.6-81.82-34.61-142.07-94.86T68.6-305.53Q34-387.36 34-480q0-93.94 34.5-174.97T163-797l97 96q-40.95 41.55-65.47 98.95Q170-544.66 170-480.11 170-349 259.74-259.5 349.49-170 480-170t220.26-89.74Q790-349.49 790-479.77q0-64.89-23.53-122.28Q742.95-659.45 701-701l96-96q60 61 94.5 142.03T926-480q0 92.52-34.58 174.25-34.59 81.72-95 142.07Q736-103.33 654.45-68.66 572.9-34 480-34Zm-68-378v-514h136v514H412Z"/></svg>